<svg width="246" height="143" viewBox="0 0 246 143" fill="none" xmlns="http://www.w3.org/2000/svg">
<g filter="url(#filter0_ddddd_182_1243)">
<path d="M108.471 29.027C99.6494 29.0085 90.9468 31.0867 83.0662 35.0939C78.6535 32.8691 73.9724 31.2357 69.1415 30.235C66.1383 29.5039 63.068 29.09 59.9802 29C59.6962 28.9997 59.4127 29.0238 59.1328 29.0721H58.6689C58.3389 29.0721 57.9999 29.0721 57.6609 29.0721C48.8859 29.0514 40.228 31.1075 32.3806 35.0759C20.7841 29.1262 11.0787 29.0451 10.6594 29.0451C10.2901 29.0445 9.92196 29.0868 9.56222 29.1713C7.4378 29.0534 5.30857 29.0534 3.18414 29.1713C-25.8785 31.0283 -49.232 55.5483 -49.9813 84.9903C-50.0834 89.0332 -49.7665 93.0758 -49.0358 97.052C-47.0573 107.673 -42.159 117.516 -34.902 125.454C-27.6449 133.392 -18.3224 139.104 -8.00201 141.936C-6.44095 142.36 -4.8442 142.712 -3.23853 143H-2.95307H117.454C118.868 142.999 120.271 142.752 121.602 142.27H121.816H122.004C123.859 141.81 125.697 141.251 127.472 140.62C140.11 136.094 150.758 127.2 157.536 115.509C164.313 103.817 166.784 90.0811 164.51 76.7274C162.237 63.3737 155.366 51.2618 145.111 42.5317C134.857 33.8016 121.88 29.0151 108.471 29.018V29.027Z" fill="url(#paint0_linear_182_1243)"/>
</g>
<mask id="mask0_182_1243" style="mask-type:alpha" maskUnits="userSpaceOnUse" x="-50" y="29" width="216" height="114">
<path d="M108.471 29.027C99.6494 29.0085 90.9468 31.0867 83.0662 35.0939C78.6535 32.8691 73.9724 31.2357 69.1415 30.235C66.1383 29.5039 63.068 29.09 59.9802 29C59.6962 28.9997 59.4127 29.0238 59.1328 29.0721H58.6689C58.3389 29.0721 57.9999 29.0721 57.6609 29.0721C48.8859 29.0514 40.228 31.1075 32.3806 35.0759C20.7841 29.1262 11.0787 29.0451 10.6594 29.0451C10.2901 29.0445 9.92196 29.0868 9.56222 29.1713C7.4378 29.0534 5.30857 29.0534 3.18414 29.1713C-25.8785 31.0283 -49.232 55.5483 -49.9813 84.9903C-50.0834 89.0332 -49.7665 93.0758 -49.0358 97.052C-47.0573 107.673 -42.159 117.516 -34.902 125.454C-27.6449 133.392 -18.3224 139.104 -8.00201 141.936C-6.44095 142.36 -4.8442 142.712 -3.23853 143H-2.95307H117.454C118.868 142.999 120.271 142.752 121.602 142.27H121.816H122.004C123.859 141.81 125.697 141.251 127.472 140.62C140.11 136.094 150.758 127.2 157.536 115.509C164.313 103.817 166.784 90.0811 164.51 76.7274C162.237 63.3737 155.366 51.2618 145.111 42.5317C134.857 33.8016 121.88 29.0151 108.471 29.018V29.027Z" fill="url(#paint1_linear_182_1243)"/>
</mask>
<g mask="url(#mask0_182_1243)">
<path fill-rule="evenodd" clip-rule="evenodd" d="M32.6107 32.0556C33.1459 33.7206 32.23 35.5042 30.565 36.0394C29.7543 36.3 28.3466 37.0172 26.5511 38.2221C24.8085 39.3915 22.8714 40.9045 21.0237 42.601C19.172 44.3012 17.4623 46.1377 16.1388 47.9439C14.7906 49.7839 13.9757 51.4134 13.6872 52.7116C13.3078 54.4188 11.6162 55.4953 9.90899 55.1159C8.20173 54.7365 7.12528 53.0449 7.50467 51.3377C8.06064 48.8358 9.42717 46.3883 11.0301 44.2006C12.6578 41.9793 14.669 39.8377 16.7404 37.9358C18.8158 36.0302 21.0042 34.3172 23.022 32.9631C24.9869 31.6446 26.9746 30.541 28.6269 30.0099C30.2919 29.4747 32.0755 30.3906 32.6107 32.0556Z" fill="#FFEEC1"/>
<path fill-rule="evenodd" clip-rule="evenodd" d="M83.5792 32.2824C83.9891 33.9826 82.9431 35.6931 81.2429 36.103C78.5057 36.7629 73.1078 39.367 68.0116 42.8764C65.5073 44.6009 63.1997 46.4607 61.4173 48.2851C59.5799 50.1658 58.5489 51.7587 58.2036 52.9241C57.7068 54.601 55.9447 55.5575 54.2678 55.0607C52.591 54.5639 51.6344 52.8017 52.1312 51.1249C52.9119 48.4903 54.7895 46.0062 56.8871 43.8592C59.0395 41.656 61.6931 39.5377 64.4196 37.6602C69.7851 33.9654 75.9279 30.8695 79.7586 29.946C81.4588 29.5362 83.1694 30.5822 83.5792 32.2824Z" fill="#FFEEC1"/>
</g>
<path fill-rule="evenodd" clip-rule="evenodd" d="M121.351 78.2402C122.949 77.5305 124.82 78.2509 125.53 79.8493C125.753 80.3509 126.29 81.0903 126.998 81.5041C127.534 81.8175 128.337 82.0677 129.709 81.4584C131.081 80.8492 131.435 80.0856 131.562 79.4776C131.73 78.675 131.541 77.7808 131.318 77.2792C130.609 75.6807 131.329 73.8096 132.928 73.0999C134.526 72.3902 136.397 73.1106 137.107 74.709C137.741 76.1369 138.259 78.3939 137.761 80.7741C137.222 83.349 135.538 85.7999 132.279 87.2468C129.021 88.6937 126.073 88.2995 123.802 86.9721C121.703 85.7451 120.376 83.8473 119.742 82.4195C119.032 80.821 119.752 78.9499 121.351 78.2402Z" fill="black"/>
<path d="M111.88 75.0474C113.185 77.9851 111.861 81.4239 108.923 82.7283C105.985 84.0326 102.547 82.7086 101.242 79.771C99.9378 76.8333 101.262 73.3945 104.199 72.0901C107.137 70.7858 110.576 72.1098 111.88 75.0474Z" fill="black"/>
<path d="M143.794 60.8771C145.098 63.8148 143.774 67.2536 140.837 68.5579C137.899 69.8623 134.46 68.5383 133.156 65.6006C131.852 62.663 133.176 59.2242 136.113 57.9198C139.051 56.6155 142.49 57.9395 143.794 60.8771Z" fill="black"/>
<defs>
<filter id="filter0_ddddd_182_1243" x="-130" y="0" width="375.333" height="274" filterUnits="userSpaceOnUse" color-interpolation-filters="sRGB">
<feFlood flood-opacity="0" result="BackgroundImageFix"/>
<feColorMatrix in="SourceAlpha" type="matrix" values="0 0 0 0 0 0 0 0 0 0 0 0 0 0 0 0 0 0 127 0" result="hardAlpha"/>
<feOffset dy="1.7518"/>
<feGaussianBlur stdDeviation="1.37396"/>
<feColorMatrix type="matrix" values="0 0 0 0 0 0 0 0 0 0 0 0 0 0 0 0 0 0 0.0465028 0"/>
<feBlend mode="normal" in2="BackgroundImageFix" result="effect1_dropShadow_182_1243"/>
<feColorMatrix in="SourceAlpha" type="matrix" values="0 0 0 0 0 0 0 0 0 0 0 0 0 0 0 0 0 0 127 0" result="hardAlpha"/>
<feOffset dy="4.43042"/>
<feGaussianBlur stdDeviation="3.47484"/>
<feColorMatrix type="matrix" values="0 0 0 0 0 0 0 0 0 0 0 0 0 0 0 0 0 0 0.0665564 0"/>
<feBlend mode="normal" in2="effect1_dropShadow_182_1243" result="effect2_dropShadow_182_1243"/>
<feColorMatrix in="SourceAlpha" type="matrix" values="0 0 0 0 0 0 0 0 0 0 0 0 0 0 0 0 0 0 127 0" result="hardAlpha"/>
<feOffset dy="9.03764"/>
<feGaussianBlur stdDeviation="7.08835"/>
<feColorMatrix type="matrix" values="0 0 0 0 0 0 0 0 0 0 0 0 0 0 0 0 0 0 0.0834436 0"/>
<feBlend mode="normal" in2="effect2_dropShadow_182_1243" result="effect3_dropShadow_182_1243"/>
<feColorMatrix in="SourceAlpha" type="matrix" values="0 0 0 0 0 0 0 0 0 0 0 0 0 0 0 0 0 0 127 0" result="hardAlpha"/>
<feOffset dy="18.6158"/>
<feGaussianBlur stdDeviation="14.6007"/>
<feColorMatrix type="matrix" values="0 0 0 0 0 0 0 0 0 0 0 0 0 0 0 0 0 0 0.103497 0"/>
<feBlend mode="normal" in2="effect3_dropShadow_182_1243" result="effect4_dropShadow_182_1243"/>
<feColorMatrix in="SourceAlpha" type="matrix" values="0 0 0 0 0 0 0 0 0 0 0 0 0 0 0 0 0 0 127 0" result="hardAlpha"/>
<feOffset dy="51"/>
<feGaussianBlur stdDeviation="40"/>
<feColorMatrix type="matrix" values="0 0 0 0 0 0 0 0 0 0 0 0 0 0 0 0 0 0 0.15 0"/>
<feBlend mode="normal" in2="effect4_dropShadow_182_1243" result="effect5_dropShadow_182_1243"/>
<feBlend mode="normal" in="SourceGraphic" in2="effect5_dropShadow_182_1243" result="shape"/>
</filter>
<linearGradient id="paint0_linear_182_1243" x1="124.595" y1="29" x2="4.10769" y2="116.871" gradientUnits="userSpaceOnUse">
<stop stop-color="#F3AD6C"/>
<stop offset="1" stop-color="#C77020"/>
</linearGradient>
<linearGradient id="paint1_linear_182_1243" x1="124.595" y1="29" x2="4.10769" y2="116.871" gradientUnits="userSpaceOnUse">
<stop stop-color="#F3AD6C"/>
<stop offset="1" stop-color="#C77020"/>
</linearGradient>
</defs>
</svg>
