<svg width="16" height="16" viewBox="0 0 16 16" fill="none" xmlns="http://www.w3.org/2000/svg">
<g clip-path="url(#clip0_177_1576)">
<path fill-rule="evenodd" clip-rule="evenodd" d="M16 8.18163C16.0007 7.63273 15.951 7.08488 15.8516 6.5447H8.1611V9.63919H12.5547C12.4635 10.1282 12.2721 10.5939 11.9922 11.0084C11.7122 11.4229 11.3495 11.7776 10.9258 12.0509V14.0586H13.5636C15.1071 12.6659 15.9977 10.6144 15.9977 8.18012L16 8.18163Z" fill="#3E82F1"/>
<path fill-rule="evenodd" clip-rule="evenodd" d="M8.16343 15.9992C10.3675 15.9992 12.2155 15.2833 13.566 14.0616L10.9281 12.0539C10.1968 12.534 9.26163 12.8181 8.16343 12.8181C6.03702 12.8181 4.23745 11.4103 3.59606 9.51936H0.868256V11.5926C1.54777 12.9178 2.58988 14.0316 3.87815 14.8098C5.16641 15.588 6.6501 15.9998 8.16343 15.9992Z" fill="#32A753"/>
<path fill-rule="evenodd" clip-rule="evenodd" d="M3.59604 9.51936C3.25459 8.53383 3.25459 7.46541 3.59604 6.47989V4.40659H0.868235C0.297323 5.52169 3.05176e-05 6.75204 3.05176e-05 7.99962C3.05176e-05 9.2472 0.297323 10.4776 0.868235 11.5927L3.59604 9.51936Z" fill="#F9BB00"/>
<path fill-rule="evenodd" clip-rule="evenodd" d="M8.16341 3.18116C9.36236 3.18116 10.4382 3.58511 11.2842 4.37795L13.6252 2.08309C12.2117 0.792088 10.3637 5.53441e-07 8.16495 5.53441e-07C6.65162 -0.000551066 5.16794 0.411261 3.87967 1.18943C2.59141 1.9676 1.5493 3.08147 0.869781 4.40659L3.59759 6.47989C4.23897 4.58898 6.03854 3.18116 8.16495 3.18116H8.16341Z" fill="#E74133"/>
</g>
<defs>
<clipPath id="clip0_177_1576">
<rect width="16" height="16" fill="white"/>
</clipPath>
</defs>
</svg>
