<svg width="161" height="55" viewBox="0 0 161 55" fill="none" xmlns="http://www.w3.org/2000/svg">
<path d="M18.947 6.15187C18.947 6.61412 18.8533 6.93376 18.6659 7.11079C18.4884 7.28782 18.1629 7.37634 17.6896 7.37634H13.651C13.1776 7.37634 12.8472 7.28782 12.6598 7.11079C12.4823 6.93376 12.3935 6.61412 12.3935 6.15187V2.22765C12.3935 1.7654 12.4823 1.44576 12.6598 1.26873C12.8472 1.0917 13.1776 1.00318 13.651 1.00318H17.6896C18.1629 1.00318 18.4884 1.0917 18.6659 1.26873C18.8533 1.44576 18.947 1.7654 18.947 2.22765V6.15187ZM17.083 2.92103C17.083 2.69482 16.9696 2.58172 16.7428 2.58172H14.5977C14.3709 2.58172 14.2575 2.69482 14.2575 2.92103V5.45849C14.2575 5.6847 14.3709 5.7978 14.5977 5.7978H16.7428C16.9696 5.7978 17.083 5.6847 17.083 5.45849V2.92103ZM24.0655 3.59965C24.3022 3.59965 24.4748 3.67833 24.5833 3.8357C24.6917 3.99306 24.746 4.18484 24.746 4.41105C24.746 4.63726 24.6917 4.83396 24.5833 5.00116C24.4748 5.15852 24.3022 5.2372 24.0655 5.2372H22.6749V8.39427C22.6749 8.66966 22.5763 8.87128 22.379 8.99913C22.1917 9.12699 21.9747 9.19092 21.7281 9.19092C21.4816 9.19092 21.2597 9.12699 21.0624 8.99913C20.8751 8.87128 20.7814 8.66966 20.7814 8.39427V1.07695C20.7814 0.801562 20.8751 0.599943 21.0624 0.472086C21.2597 0.344229 21.4816 0.280301 21.7281 0.280301C21.9747 0.280301 22.1917 0.344229 22.379 0.472086C22.5763 0.599943 22.6749 0.801562 22.6749 1.07695V3.59965H24.0655ZM19.2429 9.36795C19.2429 9.82037 19.3316 10.1793 19.5091 10.4449C19.6965 10.7104 19.9825 10.9465 20.3672 11.153C20.7814 11.3694 21.1857 11.5759 21.5802 11.7726C21.9846 11.9595 22.4136 12.1562 22.8672 12.3627C23.0743 12.4611 23.1976 12.6135 23.2371 12.8201C23.2765 13.0266 23.2469 13.2282 23.1483 13.4249C23.0497 13.6216 22.9067 13.7642 22.7193 13.8528C22.5319 13.9511 22.3199 13.9462 22.0832 13.838C21.669 13.661 21.2893 13.4839 20.9441 13.3069C20.5989 13.1397 20.2587 12.9676 19.9233 12.7906C19.6078 12.6234 19.3513 12.4758 19.1541 12.348C18.9667 12.23 18.8138 12.1169 18.6955 12.0087C18.5772 11.9103 18.4884 11.8169 18.4292 11.7284C18.3799 11.6399 18.3405 11.5513 18.3109 11.4628H18.2961C18.2665 11.5612 18.2221 11.6595 18.1629 11.7579C18.1136 11.8464 18.0298 11.9398 17.9115 12.0382C17.7931 12.1464 17.6304 12.2644 17.4233 12.3922C17.226 12.5201 16.9745 12.6676 16.6688 12.8348C16.3335 13.0119 15.9932 13.184 15.6481 13.3512C15.3029 13.5282 14.9232 13.7052 14.509 13.8823C14.2723 13.9905 14.0602 13.9954 13.8729 13.897C13.6855 13.8085 13.5425 13.6659 13.4439 13.4692C13.3452 13.2627 13.3156 13.0512 13.3551 12.8348C13.3945 12.6185 13.5178 12.4611 13.7249 12.3627C14.1786 12.1562 14.6027 11.9595 14.9972 11.7726C15.4015 11.5759 15.8108 11.3694 16.225 11.153C16.6096 10.9465 16.8907 10.7104 17.0682 10.4449C17.2556 10.1793 17.3493 9.82037 17.3493 9.36795V9.01389C17.3493 8.7385 17.443 8.53688 17.6304 8.40903C17.8276 8.28117 18.0495 8.21724 18.2961 8.21724C18.5426 8.21724 18.7596 8.28117 18.947 8.40903C19.1442 8.53688 19.2429 8.7385 19.2429 9.01389V9.36795Z" fill="white"/>
<path d="M25.1477 4.116C25.1477 3.63408 25.2217 3.1915 25.3696 2.78826C25.5176 2.38502 25.7395 2.04079 26.0353 1.75557C26.3312 1.46051 26.701 1.23431 27.1448 1.07695C27.5886 0.909748 28.1064 0.82615 28.6981 0.82615C29.2899 0.82615 29.8076 0.909748 30.2514 1.07695C30.6952 1.23431 31.0651 1.46051 31.3609 1.75557C31.6568 2.04079 31.8787 2.38502 32.0266 2.78826C32.1746 3.1915 32.2485 3.63408 32.2485 4.116C32.2485 4.59792 32.1746 5.0405 32.0266 5.44374C31.8787 5.84698 31.6568 6.19612 31.3609 6.49118C31.0651 6.7764 30.6952 7.0026 30.2514 7.1698C29.8076 7.32716 29.2899 7.40584 28.6981 7.40584C28.1064 7.40584 27.5886 7.32716 27.1448 7.1698C26.701 7.0026 26.3312 6.7764 26.0353 6.49118C25.7395 6.19612 25.5176 5.84698 25.3696 5.44374C25.2217 5.0405 25.1477 4.59792 25.1477 4.116ZM30.4437 4.116C30.4437 3.63408 30.3106 3.22592 30.0443 2.89153C29.778 2.5473 29.3293 2.37518 28.6981 2.37518C28.3825 2.37518 28.1113 2.42436 27.8845 2.52271C27.6675 2.61122 27.49 2.73416 27.3519 2.89153C27.2139 3.04889 27.1103 3.23575 27.0413 3.45213C26.9821 3.65866 26.9525 3.87995 26.9525 4.116C26.9525 4.35204 26.9821 4.57825 27.0413 4.79462C27.1103 5.00116 27.2139 5.18311 27.3519 5.34047C27.49 5.49783 27.6675 5.62569 27.8845 5.72404C28.1113 5.81256 28.3825 5.85681 28.6981 5.85681C29.3293 5.85681 29.778 5.68962 30.0443 5.35522C30.3106 5.01099 30.4437 4.59792 30.4437 4.116ZM36.0356 7.25832C36.0356 7.5337 35.937 7.73532 35.7398 7.86318C35.5524 7.99103 35.3354 8.05496 35.0889 8.05496C34.8423 8.05496 34.6204 7.99103 34.4232 7.86318C34.2358 7.73532 34.1421 7.5337 34.1421 7.25832V1.07695C34.1421 0.801562 34.2358 0.599943 34.4232 0.472086C34.6204 0.344229 34.8423 0.280301 35.0889 0.280301C35.3354 0.280301 35.5524 0.344229 35.7398 0.472086C35.937 0.599943 36.0356 0.801562 36.0356 1.07695V7.25832ZM37.0416 12.4955C37.2191 12.6332 37.3029 12.8053 37.2931 13.0119C37.2931 13.2282 37.224 13.42 37.086 13.5872C36.9479 13.7642 36.7753 13.8724 36.5682 13.9118C36.3611 13.961 36.1491 13.9069 35.9321 13.7495C35.6165 13.5233 35.296 13.2676 34.9705 12.9824C34.6352 12.6971 34.4034 12.4709 34.2752 12.3037C34.147 12.1365 34.0583 11.9792 34.0089 11.8316H33.9942C33.9744 11.9103 33.9448 11.989 33.9054 12.0677C33.8659 12.1464 33.8068 12.23 33.7279 12.3185C33.6588 12.407 33.5701 12.5054 33.4616 12.6135C33.3531 12.7316 33.22 12.8643 33.0622 13.0119C32.9537 13.1102 32.8452 13.2036 32.7367 13.2922C32.6381 13.3905 32.5345 13.4839 32.4261 13.5725C32.1105 13.8282 31.8294 13.956 31.5828 13.956C31.3363 13.956 31.0552 13.8282 30.7396 13.5725C30.6311 13.4839 30.5226 13.3905 30.4142 13.2922C30.3155 13.2036 30.212 13.1102 30.1035 13.0119C29.7879 12.707 29.5611 12.4758 29.423 12.3185C29.2948 12.1611 29.211 11.9988 29.1715 11.8316H29.1567C29.137 11.9103 29.1074 11.989 29.068 12.0677C29.0285 12.1464 28.9693 12.23 28.8904 12.3185C28.8214 12.4168 28.7277 12.5201 28.6094 12.6283C28.5009 12.7365 28.3628 12.8643 28.1952 13.0119C28.0275 13.1496 27.8648 13.2823 27.707 13.4102C27.559 13.538 27.4012 13.661 27.2336 13.779C27.0166 13.9364 26.8046 13.9905 26.5975 13.9413C26.3904 13.9019 26.2178 13.7938 26.0797 13.6167C25.9416 13.4397 25.8677 13.243 25.8578 13.0266C25.8578 12.8102 25.9466 12.6332 26.1241 12.4955C26.3312 12.3382 26.5482 12.166 26.775 11.9792C27.0117 11.8021 27.2385 11.6153 27.4555 11.4186C27.7218 11.1727 27.9141 10.9268 28.0324 10.6809C28.1606 10.4252 28.2247 10.1105 28.2247 9.73677V9.11716C28.2247 8.85161 28.3184 8.6549 28.5058 8.52705C28.7031 8.39919 28.92 8.33526 29.1567 8.33526C29.4033 8.33526 29.6202 8.39919 29.8076 8.52705C29.995 8.6549 30.0887 8.85161 30.0887 9.11716V9.73677C30.0887 9.92364 30.0986 10.0908 30.1183 10.2384C30.138 10.3761 30.1676 10.5039 30.2071 10.6219C30.2465 10.74 30.3007 10.8531 30.3698 10.9612C30.4388 11.0694 30.5276 11.1825 30.6361 11.3006C30.7445 11.4087 30.853 11.5218 30.9615 11.6399C31.0799 11.7579 31.1883 11.8562 31.287 11.9349C31.4053 12.0431 31.5039 12.0972 31.5828 12.0972C31.6617 12.0972 31.7604 12.0431 31.8787 11.9349C31.9773 11.8562 32.0809 11.7579 32.1894 11.6399C32.3077 11.5218 32.4211 11.4087 32.5296 11.3006C32.6282 11.1825 32.7121 11.0694 32.7811 10.9612C32.86 10.8531 32.9192 10.74 32.9586 10.6219C32.9981 10.5039 33.0277 10.3761 33.0474 10.2384C33.0671 10.0908 33.077 9.92364 33.077 9.73677V9.11716C33.077 8.85161 33.1707 8.6549 33.358 8.52705C33.5454 8.39919 33.7624 8.33526 34.0089 8.33526C34.2456 8.33526 34.4577 8.39919 34.6451 8.52705C34.8423 8.6549 34.9409 8.85161 34.9409 9.11716V9.73677C34.9409 10.1105 35.0001 10.4252 35.1185 10.6809C35.2467 10.9268 35.4439 11.1727 35.7102 11.4186C35.9272 11.6153 36.1491 11.8021 36.3759 11.9792C36.6126 12.166 36.8345 12.3382 37.0416 12.4955Z" fill="white"/>
<path d="M47.8874 4.23402C48.1143 4.23402 48.2819 4.3127 48.3904 4.47006C48.4989 4.62742 48.5531 4.81429 48.5531 5.03066C48.5531 5.24704 48.4989 5.4339 48.3904 5.59127C48.2819 5.74863 48.1143 5.82731 47.8874 5.82731H40.3132C39.8398 5.82731 39.5095 5.73879 39.3221 5.56176C39.1446 5.38473 39.0558 5.06509 39.0558 4.60284V1.41626C39.0558 1.14087 39.1495 0.939254 39.3369 0.811397C39.5341 0.683541 39.7609 0.619612 40.0174 0.619612C40.2639 0.619612 40.4809 0.683541 40.6683 0.811397C40.8655 0.939254 40.9641 1.14087 40.9641 1.41626V3.89471C40.9641 4.12091 41.0776 4.23402 41.3044 4.23402H47.8874ZM38.0942 8.68933C37.8674 8.68933 37.6997 8.61065 37.5913 8.45328C37.4828 8.29592 37.4285 8.10906 37.4285 7.89268C37.4285 7.67631 37.4828 7.48944 37.5913 7.33208C37.6997 7.17472 37.8674 7.09604 38.0942 7.09604H49.278C49.5048 7.09604 49.6725 7.17472 49.781 7.33208C49.8895 7.48944 49.9437 7.67631 49.9437 7.89268C49.9437 8.10906 49.8895 8.29592 49.781 8.45328C49.6725 8.61065 49.5048 8.68933 49.278 8.68933H38.0942ZM47.917 12.3185C48.1439 12.3185 48.3115 12.3972 48.42 12.5545C48.5285 12.7119 48.5827 12.8988 48.5827 13.1151C48.5827 13.3315 48.5285 13.5184 48.42 13.6757C48.3115 13.8331 48.1439 13.9118 47.917 13.9118H40.2836C39.8103 13.9118 39.4799 13.8233 39.2925 13.6462C39.115 13.4692 39.0262 13.1496 39.0262 12.6873V10.4006C39.0262 10.1253 39.1199 9.92363 39.3073 9.79578C39.5045 9.66792 39.7314 9.60399 39.9878 9.60399C40.2343 9.60399 40.4513 9.66792 40.6387 9.79578C40.8359 9.92363 40.9346 10.1253 40.9346 10.4006V11.9792C40.9346 12.2054 41.048 12.3185 41.2748 12.3185H47.917Z" fill="white"/>
<path d="M57.1504 4.3963C57.6534 4.3963 58.107 4.47006 58.5114 4.61759C58.9256 4.75528 59.2708 4.95198 59.5469 5.2077C59.8329 5.46341 60.0499 5.77813 60.1978 6.15187C60.3556 6.51577 60.4345 6.91901 60.4345 7.36159C60.4345 7.80417 60.3556 8.21232 60.1978 8.58606C60.0499 8.94996 59.8329 9.25976 59.5469 9.51548C59.2708 9.77119 58.9256 9.97281 58.5114 10.1203C58.107 10.258 57.6534 10.3269 57.1504 10.3269C56.6474 10.3269 56.1888 10.258 55.7746 10.1203C55.3703 9.97281 55.0251 9.77119 54.7391 9.51548C54.4629 9.25976 54.246 8.94996 54.0882 8.58606C53.9402 8.21232 53.8663 7.80417 53.8663 7.36159C53.8663 6.91901 53.9402 6.51577 54.0882 6.15187C54.246 5.77813 54.4629 5.46341 54.7391 5.2077C55.0251 4.95198 55.3703 4.75528 55.7746 4.61759C56.1888 4.47006 56.6474 4.3963 57.1504 4.3963ZM56.2036 2.06537V1.04744C56.2036 0.772057 56.2973 0.570437 56.4847 0.442581C56.6819 0.314724 56.9038 0.250796 57.1504 0.250796C57.397 0.250796 57.6139 0.314724 57.8013 0.442581C57.9986 0.570437 58.0972 0.772057 58.0972 1.04744V2.06537H60.4197C60.6466 2.06537 60.8142 2.14406 60.9227 2.30142C61.0312 2.45878 61.0854 2.64565 61.0854 2.86202C61.0854 3.07839 61.0312 3.26526 60.9227 3.42262C60.8142 3.57998 60.6466 3.65866 60.4197 3.65866H53.7035C53.4767 3.65866 53.3091 3.57998 53.2006 3.42262C53.0921 3.26526 53.0378 3.07839 53.0378 2.86202C53.0378 2.64565 53.0921 2.45878 53.2006 2.30142C53.3091 2.14406 53.4767 2.06537 53.7035 2.06537H56.2036ZM57.1504 8.8221C57.6238 8.8221 58.0035 8.69424 58.2895 8.43853C58.5755 8.17298 58.7185 7.814 58.7185 7.36159C58.7185 6.90917 58.5755 6.55511 58.2895 6.29939C58.0035 6.03385 57.6238 5.90107 57.1504 5.90107C56.677 5.90107 56.2973 6.03385 56.0113 6.29939C55.7253 6.55511 55.5823 6.90917 55.5823 7.36159C55.5823 7.814 55.7253 8.17298 56.0113 8.43853C56.2973 8.69424 56.677 8.8221 57.1504 8.8221ZM63.8074 4.77987H65.198C65.4347 4.77987 65.6073 4.85855 65.7158 5.01591C65.8242 5.17327 65.8785 5.36506 65.8785 5.59127C65.8785 5.81747 65.8242 6.01418 65.7158 6.18137C65.6073 6.33873 65.4347 6.41742 65.198 6.41742H63.8074V12.3775C63.8074 12.6529 63.7088 12.8545 63.5115 12.9824C63.3242 13.1102 63.1121 13.1741 62.8754 13.1741C62.6289 13.1741 62.407 13.1102 62.2097 12.9824C62.0223 12.8545 61.9287 12.6529 61.9287 12.3775V1.07695C61.9287 0.801562 62.0223 0.599943 62.2097 0.472086C62.407 0.344229 62.6289 0.280301 62.8754 0.280301C63.1121 0.280301 63.3242 0.344229 63.5115 0.472086C63.7088 0.599943 63.8074 0.801562 63.8074 1.07695V4.77987Z" fill="white"/>
<path d="M68.7507 7.30258C68.2773 7.30258 67.9469 7.21406 67.7596 7.03703C67.582 6.86 67.4933 6.54035 67.4933 6.0781V4.54383C67.4933 4.08157 67.582 3.76193 67.7596 3.5849C67.9469 3.40787 68.2773 3.31935 68.7507 3.31935H74.4609C74.6878 3.31935 74.8012 3.20625 74.8012 2.98004V2.69974C74.8012 2.47353 74.6878 2.36043 74.4609 2.36043H68.1294C67.9026 2.36043 67.7349 2.28175 67.6264 2.12439C67.5179 1.96702 67.4637 1.78999 67.4637 1.59329C67.4637 1.39659 67.5179 1.21955 67.6264 1.06219C67.7349 0.904831 67.9026 0.82615 68.1294 0.82615H75.4077C75.8811 0.82615 76.2066 0.914666 76.3841 1.0917C76.5715 1.26873 76.6652 1.58837 76.6652 2.05062V3.57015C76.6652 4.0324 76.5715 4.35204 76.3841 4.52907C76.2066 4.7061 75.8811 4.79462 75.4077 4.79462H69.6975C69.4707 4.79462 69.3572 4.90772 69.3572 5.13393V5.42899C69.3572 5.65519 69.4707 5.7683 69.6975 5.7683H76.2953C76.5222 5.7683 76.6898 5.84698 76.7983 6.00434C76.9068 6.1617 76.961 6.33873 76.961 6.53544C76.961 6.73214 76.9068 6.90917 76.7983 7.06653C76.6898 7.22389 76.5222 7.30258 76.2953 7.30258H68.7507ZM73.0408 9.86954V13.4102C73.0408 13.6856 72.9422 13.8872 72.7449 14.015C72.5575 14.1429 72.3406 14.2068 72.094 14.2068C71.8475 14.2068 71.6256 14.1429 71.4283 14.015C71.2409 13.8872 71.1472 13.6856 71.1472 13.4102V9.86954H66.5021C66.2753 9.86954 66.1076 9.79086 65.9991 9.6335C65.8907 9.47614 65.8364 9.28927 65.8364 9.0729C65.8364 8.86636 65.8907 8.68441 65.9991 8.52705C66.1076 8.36969 66.2753 8.29101 66.5021 8.29101H77.6859C77.9127 8.29101 78.0804 8.36969 78.1889 8.52705C78.2974 8.68441 78.3516 8.86636 78.3516 9.0729C78.3516 9.28927 78.2974 9.47614 78.1889 9.6335C78.0804 9.79086 77.9127 9.86954 77.6859 9.86954H73.0408Z" fill="white"/>
<path d="M82.4517 2.99479C82.2248 2.99479 82.0572 2.91611 81.9487 2.75875C81.8402 2.60139 81.786 2.41452 81.786 2.19815C81.786 1.97194 81.8402 1.78016 81.9487 1.62279C82.0572 1.46543 82.2248 1.38675 82.4517 1.38675H85.8837C86.3571 1.38675 86.6826 1.47527 86.8601 1.6523C87.0475 1.82933 87.1412 2.14897 87.1412 2.61122V4.17501C87.1412 4.63726 87.1264 5.0405 87.0968 5.38473C87.0771 5.72896 87.0228 6.04368 86.9341 6.3289C86.8453 6.61412 86.7122 6.8895 86.5346 7.15505C86.3571 7.41076 86.1155 7.68123 85.8098 7.96645C85.504 8.25166 85.1243 8.56639 84.6707 8.91062C84.217 9.25485 83.6697 9.65317 83.0286 10.1056C82.8314 10.2433 82.6193 10.2826 82.3925 10.2236C82.1657 10.1548 81.9882 10.0318 81.8599 9.85479C81.7317 9.67776 81.6627 9.47122 81.6528 9.23518C81.643 8.99913 81.7416 8.80735 81.9487 8.65982C82.501 8.27625 82.9645 7.94678 83.3393 7.67139C83.7239 7.38617 84.0395 7.13538 84.2861 6.91901C84.5425 6.6928 84.7397 6.48626 84.8778 6.29939C85.0257 6.10269 85.1342 5.90107 85.2032 5.69453C85.2723 5.47816 85.3117 5.24704 85.3216 5.00116C85.3413 4.75528 85.3512 4.46023 85.3512 4.116V3.33411C85.3512 3.1079 85.2378 2.99479 85.0109 2.99479H82.4517ZM91.5348 1.01793C91.5348 0.762222 91.6236 0.575354 91.8011 0.457333C91.9786 0.339312 92.1808 0.280301 92.4076 0.280301C92.6344 0.280301 92.8366 0.339312 93.0141 0.457333C93.1917 0.575354 93.2804 0.762222 93.2804 1.01793V12.4365C93.2804 12.6922 93.1917 12.8791 93.0141 12.9971C92.8366 13.1151 92.6344 13.1741 92.4076 13.1741C92.1808 13.1741 91.9786 13.1151 91.8011 12.9971C91.6236 12.8791 91.5348 12.6922 91.5348 12.4365V1.01793ZM86.3719 3.11282H88.8128V1.16546C88.8128 0.909749 88.9016 0.722882 89.0791 0.60486C89.2566 0.486838 89.4588 0.427828 89.6856 0.427828C89.9026 0.427828 90.0999 0.486838 90.2774 0.60486C90.4549 0.722882 90.5437 0.909749 90.5437 1.16546V11.8169C90.5437 12.0726 90.4549 12.2595 90.2774 12.3775C90.0999 12.4955 89.9026 12.5545 89.6856 12.5545C89.4588 12.5545 89.2566 12.4955 89.0791 12.3775C88.9016 12.2595 88.8128 12.0726 88.8128 11.8169V8.02546H87.7329C87.5258 8.02546 87.3729 7.95169 87.2743 7.80417C87.1757 7.64681 87.1264 7.45502 87.1264 7.22881C87.1264 7.0026 87.1757 6.81082 87.2743 6.65346C87.3729 6.4961 87.5258 6.41742 87.7329 6.41742H88.8128V4.69135H86.3719V3.11282Z" fill="white"/>
<path d="M98.9634 3.27509C99.9792 3.27509 100.778 3.44229 101.36 3.77669C101.942 4.10124 102.233 4.58317 102.233 5.22245C102.233 5.86173 101.942 6.34857 101.36 6.68296C100.778 7.00752 99.9792 7.1698 98.9634 7.1698C97.9476 7.1698 97.1487 7.00752 96.5669 6.68296C95.985 6.34857 95.6941 5.86173 95.6941 5.22245C95.6941 4.58317 95.985 4.10124 96.5669 3.77669C97.1487 3.44229 97.9476 3.27509 98.9634 3.27509ZM98.9634 5.84206C100.009 5.84206 100.531 5.63552 100.531 5.22245C100.531 4.80937 100.009 4.60284 98.9634 4.60284C97.918 4.60284 97.3953 4.80937 97.3953 5.22245C97.3953 5.63552 97.918 5.84206 98.9634 5.84206ZM95.4722 2.80301C95.2651 2.80301 95.1122 2.73416 95.0136 2.59647C94.9149 2.44894 94.8656 2.27683 94.8656 2.08013C94.8656 1.88343 94.9149 1.71131 95.0136 1.56378C95.1122 1.41626 95.2651 1.34249 95.4722 1.34249H98.0166V0.767139C98.0166 0.511426 98.1103 0.319642 98.2977 0.191785C98.4851 0.0639283 98.707 0 98.9634 0C99.21 0 99.4269 0.0639283 99.6143 0.191785C99.8115 0.319642 99.9102 0.511426 99.9102 0.767139V1.34249H102.307C102.514 1.34249 102.667 1.41626 102.765 1.56378C102.864 1.71131 102.913 1.88343 102.913 2.08013C102.913 2.27683 102.864 2.44894 102.765 2.59647C102.667 2.73416 102.514 2.80301 102.307 2.80301H95.4722ZM103.964 1.07695C103.964 0.801562 104.057 0.599943 104.245 0.472086C104.442 0.344229 104.664 0.280301 104.91 0.280301C105.147 0.280301 105.359 0.344229 105.546 0.472086C105.744 0.599943 105.842 0.801562 105.842 1.07695V8.8221C105.842 9.09749 105.744 9.2991 105.546 9.42696C105.359 9.55482 105.147 9.61875 104.91 9.61875C104.664 9.61875 104.442 9.55482 104.245 9.42696C104.057 9.2991 103.964 9.09749 103.964 8.8221V1.07695ZM95.0431 8.0107C95.556 8.0107 96.059 8.0107 96.5521 8.0107C97.0551 8.0107 97.5531 8.00579 98.0462 7.99595V6.50593H99.8806V7.93694C100.827 7.90744 101.769 7.84842 102.706 7.75991C102.933 7.74024 103.101 7.79433 103.209 7.92219C103.327 8.04021 103.396 8.19757 103.416 8.39427C103.436 8.59098 103.401 8.77293 103.313 8.94012C103.234 9.09749 103.081 9.186 102.854 9.20567C102.4 9.24501 101.883 9.28435 101.301 9.32369C100.719 9.3532 100.093 9.3827 99.422 9.41221C98.7514 9.43188 98.0462 9.45155 97.3065 9.47122C96.5669 9.48105 95.8124 9.48597 95.0431 9.48597C94.8262 9.48597 94.6635 9.41221 94.555 9.26468C94.4563 9.11716 94.407 8.94504 94.407 8.74834C94.407 8.55164 94.4563 8.37952 94.555 8.23199C94.6635 8.08447 94.8262 8.0107 95.0431 8.0107ZM103.993 11.9939C103.993 11.7677 103.88 11.6546 103.653 11.6546H96.9515C96.7345 11.6546 96.5767 11.5809 96.4781 11.4333C96.3795 11.2858 96.3302 11.1137 96.3302 10.917C96.3302 10.7203 96.3795 10.5482 96.4781 10.4006C96.5767 10.2433 96.7345 10.1646 96.9515 10.1646H104.585C105.058 10.1646 105.384 10.2531 105.561 10.4301C105.749 10.6072 105.842 10.9268 105.842 11.3891V13.3954C105.842 13.661 105.744 13.8577 105.546 13.9855C105.359 14.1134 105.147 14.1773 104.91 14.1773C104.683 14.1773 104.471 14.1134 104.274 13.9855C104.087 13.8577 103.993 13.661 103.993 13.3954V11.9939Z" fill="white"/>
<path d="M111.555 7.65664C110.943 7.65664 110.406 7.57796 109.942 7.4206C109.489 7.2534 109.109 7.02227 108.803 6.72722C108.498 6.43217 108.266 6.08302 108.108 5.67978C107.95 5.27654 107.871 4.83396 107.871 4.35204C107.871 3.87012 107.95 3.42754 108.108 3.0243C108.266 2.62106 108.498 2.27191 108.803 1.97686C109.109 1.68181 109.489 1.4556 109.942 1.29824C110.406 1.13104 110.943 1.04744 111.555 1.04744C112.156 1.04744 112.689 1.13104 113.153 1.29824C113.616 1.4556 114.001 1.68181 114.306 1.97686C114.612 2.27191 114.844 2.62106 115.002 3.0243C115.16 3.42754 115.238 3.87012 115.238 4.35204C115.238 4.83396 115.16 5.27654 115.002 5.67978C114.844 6.08302 114.612 6.43217 114.306 6.72722C114.001 7.02227 113.616 7.2534 113.153 7.4206C112.689 7.57796 112.156 7.65664 111.555 7.65664ZM111.555 2.61122C110.904 2.61122 110.426 2.7735 110.12 3.09806C109.814 3.42262 109.661 3.84061 109.661 4.35204C109.661 4.86347 109.814 5.28146 110.12 5.60602C110.426 5.93058 110.904 6.09286 111.555 6.09286C112.206 6.09286 112.684 5.93058 112.99 5.60602C113.296 5.28146 113.448 4.86347 113.448 4.35204C113.448 3.84061 113.296 3.42262 112.99 3.09806C112.684 2.7735 112.206 2.61122 111.555 2.61122ZM115.534 10.6219C115.041 10.6711 114.494 10.7154 113.892 10.7547C113.291 10.7842 112.655 10.8088 111.984 10.8285C111.323 10.8481 110.638 10.8678 109.928 10.8875C109.218 10.8973 108.507 10.9022 107.797 10.9022C107.571 10.9022 107.403 10.8235 107.294 10.6662C107.186 10.5088 107.132 10.317 107.132 10.0908C107.132 9.87446 107.186 9.68759 107.294 9.53023C107.403 9.37287 107.571 9.29419 107.797 9.29419C109.06 9.29419 110.327 9.27943 111.599 9.24993C112.881 9.22042 114.149 9.15158 115.401 9.04339C115.628 9.02372 115.796 9.08273 115.904 9.22042C116.022 9.35812 116.091 9.53515 116.111 9.75152C116.131 9.96789 116.096 10.1646 116.008 10.3416C115.919 10.5088 115.761 10.6023 115.534 10.6219ZM116.688 1.07695C116.688 0.801562 116.782 0.599943 116.969 0.472086C117.166 0.344229 117.388 0.280301 117.635 0.280301C117.872 0.280301 118.084 0.344229 118.271 0.472086C118.468 0.599943 118.567 0.801562 118.567 1.07695V12.3775C118.567 12.6529 118.468 12.8545 118.271 12.9824C118.084 13.1102 117.872 13.1741 117.635 13.1741C117.388 13.1741 117.166 13.1102 116.969 12.9824C116.782 12.8545 116.688 12.6529 116.688 12.3775V1.07695Z" fill="white"/>
<path d="M127.978 3.8357C127.978 4.13075 127.998 4.40122 128.037 4.64709C128.086 4.89297 128.155 5.12901 128.244 5.35522C128.333 5.58143 128.446 5.80272 128.584 6.01909C128.732 6.22563 128.91 6.442 129.117 6.66821C129.383 6.95343 129.649 7.23373 129.916 7.50911C130.192 7.7845 130.443 8.02054 130.67 8.21724C130.858 8.38444 130.932 8.58606 130.892 8.8221C130.853 9.04831 130.759 9.24009 130.611 9.39746C130.542 9.4663 130.458 9.52531 130.36 9.57449C130.261 9.62366 130.157 9.65809 130.049 9.67776C129.95 9.68759 129.847 9.67776 129.738 9.64825C129.64 9.61875 129.546 9.56465 129.457 9.48597C129.26 9.30894 129.043 9.10732 128.806 8.88111C128.579 8.64507 128.348 8.39919 128.111 8.14348C127.716 7.7304 127.445 7.4206 127.297 7.21406C127.149 6.99769 127.061 6.81574 127.031 6.66821H127.016C126.997 6.75673 126.962 6.85016 126.913 6.94851C126.873 7.03703 126.814 7.1403 126.735 7.25832C126.656 7.3665 126.548 7.49928 126.41 7.65664C126.282 7.80417 126.119 7.9812 125.922 8.18774C125.685 8.44345 125.438 8.69425 125.182 8.94012C124.935 9.186 124.664 9.44663 124.368 9.72201C124.181 9.88921 123.969 9.9433 123.732 9.88429C123.505 9.81545 123.323 9.70726 123.185 9.55974C123.037 9.39254 122.958 9.19584 122.948 8.96963C122.938 8.74342 123.022 8.54672 123.2 8.37952C123.811 7.81892 124.383 7.24848 124.916 6.66821C125.123 6.442 125.295 6.22563 125.433 6.01909C125.581 5.80272 125.7 5.58143 125.788 5.35522C125.877 5.12901 125.941 4.89297 125.981 4.64709C126.03 4.40122 126.055 4.13075 126.055 3.8357V1.77032C126.055 1.4851 126.148 1.27857 126.336 1.15071C126.533 1.02285 126.76 0.958924 127.016 0.958924C127.273 0.958924 127.495 1.02285 127.682 1.15071C127.879 1.27857 127.978 1.4851 127.978 1.77032V3.8357ZM133.984 12.3775C133.984 12.6529 133.885 12.8545 133.688 12.9824C133.501 13.1102 133.279 13.1741 133.022 13.1741C132.776 13.1741 132.554 13.1102 132.357 12.9824C132.169 12.8545 132.076 12.6529 132.076 12.3775V1.07695C132.076 0.801562 132.169 0.599943 132.357 0.472086C132.554 0.344229 132.776 0.280301 133.022 0.280301C133.279 0.280301 133.501 0.344229 133.688 0.472086C133.885 0.599943 133.984 0.801562 133.984 1.07695V12.3775Z" fill="white"/>
<path d="M140.407 2.62598V2.99479C140.407 3.44721 140.476 3.82586 140.614 4.13075C140.752 4.43564 140.979 4.72086 141.294 4.98641C141.62 5.25195 141.92 5.49291 142.197 5.70929C142.483 5.91582 142.734 6.09777 142.951 6.25514C143.158 6.40266 143.267 6.58461 143.276 6.80098C143.286 7.00752 143.222 7.20422 143.084 7.39109C143.025 7.46977 142.956 7.54354 142.877 7.61238C142.798 7.67139 142.704 7.71565 142.596 7.74516C142.497 7.77466 142.389 7.7845 142.271 7.77466C142.162 7.75499 142.049 7.70582 141.93 7.62713C141.763 7.50911 141.551 7.35667 141.294 7.1698C141.048 6.9731 140.776 6.75673 140.481 6.52068C140.125 6.23547 139.879 6.01417 139.741 5.85681C139.613 5.69945 139.529 5.55192 139.489 5.41423H139.475C139.435 5.58143 139.341 5.75354 139.193 5.93058C139.046 6.10761 138.794 6.33873 138.439 6.62395C137.867 7.07637 137.295 7.5042 136.723 7.90744C136.506 8.0648 136.289 8.10414 136.072 8.02546C135.855 7.93694 135.692 7.814 135.584 7.65664C135.456 7.47961 135.392 7.27799 135.392 7.05178C135.392 6.82557 135.505 6.63379 135.732 6.47643C136.067 6.24038 136.383 6.00926 136.679 5.78305C136.984 5.55684 137.3 5.31096 137.625 5.04542C137.941 4.77987 138.168 4.49465 138.306 4.18976C138.444 3.88487 138.513 3.50622 138.513 3.0538V2.62598H136.309C136.082 2.62598 135.914 2.5473 135.806 2.38993C135.697 2.23257 135.643 2.04571 135.643 1.82933C135.643 1.61296 135.697 1.42609 135.806 1.26873C135.914 1.11137 136.082 1.03269 136.309 1.03269H142.463C142.69 1.03269 142.857 1.11137 142.966 1.26873C143.074 1.42609 143.129 1.61296 143.129 1.82933C143.129 2.04571 143.074 2.23257 142.966 2.38993C142.857 2.5473 142.69 2.62598 142.463 2.62598H140.407ZM147.463 3.37836C147.7 3.37836 147.872 3.45704 147.981 3.61441C148.089 3.77177 148.143 3.96355 148.143 4.18976C148.143 4.41597 148.089 4.61267 147.981 4.77987C147.872 4.93723 147.7 5.01591 147.463 5.01591H146.072V7.55337C146.072 7.82875 145.974 8.03037 145.777 8.15823C145.589 8.28609 145.372 8.35002 145.126 8.35002C144.879 8.35002 144.657 8.28609 144.46 8.15823C144.273 8.03037 144.179 7.82875 144.179 7.55337V1.07695C144.179 0.801562 144.273 0.599943 144.46 0.472086C144.657 0.344229 144.879 0.280301 145.126 0.280301C145.372 0.280301 145.589 0.344229 145.777 0.472086C145.974 0.599943 146.072 0.801562 146.072 1.07695V3.37836H147.463ZM144.179 10.8285C144.179 10.6023 144.065 10.4892 143.839 10.4892H137.744C137.517 10.4892 137.349 10.4105 137.241 10.2531C137.132 10.0957 137.078 9.90888 137.078 9.69251C137.078 9.47614 137.132 9.28927 137.241 9.13191C137.349 8.97455 137.517 8.89586 137.744 8.89586H144.815C145.288 8.89586 145.614 8.98438 145.791 9.16141C145.979 9.33845 146.072 9.65809 146.072 10.1203V13.3512C146.072 13.6266 145.974 13.8282 145.777 13.956C145.589 14.0839 145.372 14.1478 145.126 14.1478C144.879 14.1478 144.657 14.0839 144.46 13.956C144.273 13.8282 144.179 13.6266 144.179 13.3512V10.8285Z" fill="white"/>
<path d="M90.2751 53.8622C89.5105 53.8615 88.7775 53.556 88.2371 53.013C87.6967 52.47 87.3932 51.7338 87.3932 50.9663V26.1991C87.4166 25.447 87.7307 24.7337 88.2688 24.2101C88.807 23.6864 89.527 23.3936 90.2765 23.3936C91.0259 23.3936 91.7459 23.6864 92.2841 24.2101C92.8223 24.7337 93.1363 25.447 93.1597 26.1991V34.5869H95.0941C95.4684 34.575 95.8412 34.6386 96.1904 34.7742C96.5397 34.9097 96.8583 35.1143 97.1272 35.3759C97.3962 35.6375 97.61 35.9506 97.756 36.2967C97.9021 36.6429 97.9773 37.015 97.9773 37.3909C97.9773 37.7668 97.9021 38.1388 97.756 38.485C97.61 38.8311 97.3962 39.1443 97.1272 39.4058C96.8583 39.6674 96.5397 39.872 96.1904 40.0075C95.8412 40.1431 95.4684 40.2068 95.0941 40.1948H93.1597V50.9663C93.159 51.7341 92.8548 52.4703 92.314 53.0132C91.7732 53.5561 91.0399 53.8615 90.2751 53.8622V53.8622ZM67.9365 52.4157C67.3272 52.4149 66.7431 52.1716 66.3123 51.7391C65.8815 51.3066 65.6391 50.7202 65.6384 50.1085V26.8671C65.6384 26.1137 65.9365 25.3912 66.4672 24.8584C66.9978 24.3257 67.7176 24.0264 68.4681 24.0264C69.2185 24.0264 69.9383 24.3257 70.4689 24.8584C70.9996 25.3912 71.2977 26.1137 71.2977 26.8671V33.095H77.5605V26.8671C77.5605 26.1141 77.8585 25.3919 78.3889 24.8594C78.9193 24.3269 79.6387 24.0278 80.3888 24.0278C81.1389 24.0278 81.8583 24.3269 82.3887 24.8594C82.9191 25.3919 83.2171 26.1141 83.2171 26.8671V50.1113C83.2171 50.722 82.9756 51.3077 82.5458 51.7397C82.1159 52.1718 81.5328 52.4149 80.9246 52.4157H67.9365ZM71.2977 47.1333H77.5605V38.3576H71.2977V47.1333Z" fill="white"/>
<path d="M125.012 53.8623C124.293 53.8585 123.604 53.5692 123.096 53.0574C122.589 52.5455 122.303 51.8528 122.302 51.1305V26.0378C122.302 25.3133 122.589 24.6184 123.099 24.1061C123.61 23.5938 124.302 23.306 125.024 23.306C125.745 23.306 126.437 23.5938 126.948 24.1061C127.458 24.6184 127.745 25.3133 127.745 26.0378V51.1305C127.744 51.4901 127.673 51.8461 127.536 52.1781C127.398 52.5101 127.197 52.8116 126.943 53.0653C126.689 53.3191 126.388 53.5201 126.057 53.6568C125.725 53.7936 125.37 53.8634 125.012 53.8623ZM116.981 53.3188C116.269 53.318 115.587 53.0339 115.083 52.5288C114.579 52.0236 114.296 51.3386 114.294 50.6238V40.1185H110.346L110.318 40.243C109.723 42.8644 108.793 45.1093 107.549 46.9125C106.429 48.6061 104.925 50.0082 103.159 51.0031C102.591 51.3125 101.999 51.5747 101.388 51.7873C100.987 51.9185 100.56 51.9526 100.144 51.8869C99.7267 51.8211 99.3313 51.6574 98.9895 51.4089C98.6478 51.1605 98.3694 50.8345 98.1771 50.4575C97.9847 50.0804 97.884 49.6631 97.8829 49.2395V49.0725C97.8882 48.5311 98.0602 48.0047 98.3752 47.5653C98.6902 47.1259 99.1328 46.795 99.6425 46.6181C101.185 46.0519 102.462 44.8998 103.48 43.2211C104.856 40.9054 105.556 37.5735 105.556 33.3131V29.2027H100.449C99.7654 29.2027 99.1099 28.9301 98.6265 28.4448C98.1432 27.9596 97.8716 27.3015 97.8716 26.6153C97.8716 25.929 98.1432 25.2709 98.6265 24.7857C99.1099 24.3005 99.7654 24.0279 100.449 24.0279H108.767C109.375 24.0286 109.958 24.2713 110.388 24.7028C110.817 25.1342 111.059 25.7192 111.06 26.3293V33.0866C111.06 33.7037 111.06 34.1737 111.026 34.4851V34.6577H114.294V26.1453C114.348 25.469 114.653 24.8378 115.15 24.3774C115.646 23.9171 116.297 23.6614 116.973 23.6614C117.649 23.6614 118.3 23.9171 118.796 24.3774C119.293 24.8378 119.598 25.469 119.652 26.1453V50.6238C119.651 51.3359 119.37 52.0188 118.87 52.5236C118.37 53.0285 117.691 53.3143 116.981 53.3188Z" fill="white"/>
<path d="M132.916 52.778C132.233 52.7555 131.585 52.4673 131.11 51.9741C130.634 51.481 130.369 50.8216 130.369 50.1354C130.369 49.4491 130.634 48.7897 131.11 48.2966C131.585 47.8035 132.233 47.5152 132.916 47.4927H158.452C159.136 47.5152 159.783 47.8035 160.259 48.2966C160.734 48.7897 161 49.4491 161 50.1354C161 50.8216 160.734 51.481 160.259 51.9741C159.783 52.4673 159.136 52.7555 158.452 52.778H132.916ZM134.309 44.3165C133.701 44.3158 133.117 44.0728 132.687 43.6408C132.257 43.2088 132.015 42.6231 132.014 42.0122V26.3349C132.015 25.723 132.258 25.1366 132.69 24.7041C133.121 24.2717 133.705 24.0285 134.315 24.0277H156.873C157.209 24.0164 157.544 24.0731 157.858 24.1944C158.172 24.3157 158.458 24.4992 158.7 24.7338C158.942 24.9685 159.134 25.2496 159.265 25.5604C159.397 25.8712 159.464 26.2054 159.464 26.543C159.464 26.8805 159.397 27.2147 159.265 27.5255C159.134 27.8363 158.942 28.1174 158.7 28.3521C158.458 28.5868 158.172 28.7702 157.858 28.8915C157.544 29.0128 157.209 29.0695 156.873 29.0582H137.699V31.8013H156.515C157.127 31.8225 157.708 32.0816 158.133 32.5239C158.559 32.9662 158.797 33.5572 158.797 34.1721C158.797 34.7871 158.559 35.3781 158.133 35.8203C157.708 36.2626 157.127 36.5217 156.515 36.543H137.71V39.2861H157.246C157.895 39.308 158.512 39.5826 158.964 40.0519C159.416 40.5212 159.668 41.1485 159.668 41.8013C159.668 42.4541 159.416 43.0814 158.964 43.5507C158.512 44.02 157.895 44.2946 157.246 44.3165H134.309Z" fill="white"/>
<path d="M43.4929 23.3158C41.0806 23.3096 38.7002 23.8685 36.5408 24.9479C35.3408 24.3516 34.069 23.9134 32.7571 23.6442C31.9265 23.4438 31.0773 23.3304 30.2233 23.306C30.1415 23.3054 30.0599 23.312 29.9792 23.3256H29.8645C29.7717 23.3256 29.679 23.3256 29.5838 23.3256C27.1842 23.32 24.816 23.8737 22.6658 24.943C19.4802 23.3379 16.8341 23.3158 16.7218 23.3158C16.6167 23.3156 16.5119 23.3271 16.4094 23.3501C15.8289 23.3168 15.2469 23.3168 14.6664 23.3501C6.65244 23.8574 0.212919 30.5746 0.0054286 38.642C-0.0496671 40.7435 0.315089 42.8347 1.07817 44.7923C1.84125 46.7499 2.9872 48.5343 4.44839 50.04C5.90957 51.5457 7.6564 52.7424 9.58577 53.5594C11.5151 54.3763 13.588 54.797 15.6819 54.7966H15.7796C15.8437 54.7957 15.9063 54.7768 15.9602 54.7419C16.0141 54.707 16.0571 54.6576 16.0844 54.5993C16.1116 54.541 16.122 54.4762 16.1143 54.4123C16.1065 54.3484 16.0811 54.2879 16.0408 54.2378L13.9146 51.6157C13.8629 51.5493 13.7877 51.5054 13.7047 51.4931C11.8572 51.2048 10.0974 50.5056 8.55368 49.4467C7.01 48.3878 5.72156 46.9959 4.78255 45.3729C3.84354 43.7499 3.27769 41.9367 3.12638 40.0659C2.97507 38.1951 3.24213 36.314 3.90802 34.5601C4.57391 32.8063 5.62181 31.224 6.9751 29.9289C8.32839 28.6339 9.95286 27.6588 11.7297 27.075C13.5066 26.4912 15.391 26.3135 17.2451 26.5547C19.0992 26.796 20.8762 27.4502 22.4461 28.4695C22.4837 28.4917 22.5251 28.5067 22.5682 28.5136C23.999 29.458 25.2588 30.6406 26.2932 32.0107C26.5517 32.3265 26.9222 32.5291 27.3267 32.5758C27.7312 32.6225 28.1379 32.5096 28.461 32.2609C28.7841 32.0122 28.9983 31.6472 29.0584 31.243C29.1185 30.8387 29.0198 30.4268 28.7831 30.0943C27.9248 28.9671 26.9421 27.9411 25.8538 27.0359C27.901 26.3981 30.0769 26.2977 32.1737 26.7443C35.2554 27.4735 37.9544 29.3326 39.741 31.9567C39.8866 32.1635 40.0793 32.3324 40.3031 32.4492C40.5269 32.566 40.7752 32.6274 41.0275 32.6282C41.3145 32.6285 41.5961 32.5496 41.8415 32.4003C42.087 32.2509 42.2868 32.0367 42.4193 31.7811C42.5518 31.5254 42.6118 31.2382 42.5927 30.9507C42.5737 30.6632 42.4764 30.3864 42.3115 30.1506C41.5329 29.0183 40.6161 27.9883 39.5824 27.0849C41.1719 26.5643 42.8491 26.3681 44.5153 26.5078C46.1815 26.6475 47.803 27.1203 49.2845 27.8984C50.766 28.6766 52.0775 29.7443 53.1419 31.0387C54.2064 32.3332 55.0022 33.8283 55.4825 35.436C55.9629 37.0438 56.1182 38.7318 55.9392 40.4007C55.7602 42.0696 55.2506 43.6857 54.4403 45.154C53.63 46.6222 52.5354 47.913 51.2208 48.9503C49.9063 49.9876 48.3985 50.7505 46.7859 51.1942H31.6245C31.4133 51.1858 31.2026 51.2203 31.0051 51.2957C30.8075 51.371 30.6272 51.4857 30.4748 51.6327C30.3225 51.7797 30.2013 51.9561 30.1185 52.1514C30.0357 52.3466 29.993 52.5565 29.993 52.7687C29.993 52.9809 30.0357 53.1908 30.1185 53.386C30.2013 53.5812 30.3225 53.7576 30.4748 53.9047C30.6272 54.0517 30.8075 54.1663 31.0051 54.2417C31.2026 54.3171 31.4133 54.3516 31.6245 54.3432H47.135C47.1617 54.3468 47.1888 54.3468 47.2155 54.3432C50.939 53.4286 54.1997 51.1761 56.3809 48.0115C58.5622 44.847 59.5129 40.9898 59.0533 37.1692C58.5937 33.3486 56.7556 29.8295 53.8866 27.2773C51.0175 24.7251 47.3165 23.3166 43.4832 23.3183L43.4929 23.3158Z" fill="white"/>
<path opacity="0.6" d="M30.7777 40.7349C30.738 40.5213 30.6565 40.3178 30.538 40.1361C30.4194 39.9543 30.266 39.798 30.0869 39.6762C29.9994 39.6184 29.9071 39.5684 29.811 39.5267L29.7378 39.4973C29.6651 39.4708 29.5909 39.4487 29.5156 39.4312L29.4497 39.4165C29.3627 39.4008 29.2745 39.3918 29.1861 39.3895H29.1373C29.0255 39.3926 28.9144 39.4066 28.8053 39.4312L28.6954 39.4606C28.6121 39.484 28.5305 39.5135 28.4513 39.5488C28.4129 39.5664 28.3755 39.5861 28.3391 39.6076C28.2611 39.6523 28.1869 39.7031 28.1169 39.7595C28.0901 39.7816 28.0608 39.8037 28.0388 39.8257C27.9466 39.9114 27.8646 40.0076 27.7947 40.1124L26.7694 41.622L20.6668 50.6036L15.8359 44.6436C15.7634 44.5535 15.6816 44.4714 15.5918 44.3986C15.5597 44.374 15.5263 44.3511 15.4917 44.33C15.429 44.2862 15.3638 44.2461 15.2965 44.2099L15.1744 44.1584C15.1085 44.1339 15.0426 44.1094 14.9767 44.0922L14.84 44.0653C14.7804 44.0536 14.72 44.047 14.6593 44.0457H14.5666H14.4836H14.364C14.2991 44.0543 14.2347 44.0666 14.1711 44.0824L14.0686 44.1094C14.002 44.1315 13.9367 44.1577 13.8733 44.1878L13.7879 44.2295C13.696 44.2789 13.6086 44.3363 13.5267 44.401C13.1877 44.6778 12.9716 45.0782 12.9259 45.5145C12.8801 45.9508 13.0084 46.3875 13.2826 46.7291L19.5122 54.4094C19.5884 54.5011 19.6753 54.5834 19.7709 54.6545C19.9522 54.7984 20.1619 54.9019 20.3861 54.9583H20.4202C20.5437 54.986 20.6697 55 20.7962 55H20.8596C20.9868 54.9952 21.113 54.9754 21.2356 54.9412C21.3311 54.9143 21.4236 54.8773 21.5114 54.8309L21.5846 54.7966C21.7983 54.6762 21.982 54.5086 22.1217 54.3065L29.5108 43.4208L30.514 41.9504C30.7568 41.5954 30.8515 41.1591 30.7777 40.7349V40.7349Z" fill="white"/>
<path d="M29.1641 42.6856C30.0849 42.6856 30.8314 41.9363 30.8314 41.0119C30.8314 40.0875 30.0849 39.3381 29.1641 39.3381C28.2433 39.3381 27.4969 40.0875 27.4969 41.0119C27.4969 41.9363 28.2433 42.6856 29.1641 42.6856Z" fill="white"/>
</svg>
